<svg width="340" height="38" viewBox="0 0 340 38" fill="none" xmlns="http://www.w3.org/2000/svg">
<path d="M0.722003 0.639998H5.4708L7.666 24.7424H7.7556L10.0852 0.639998H15.4612L17.7908 24.7424H17.8804L20.0756 0.639998H24.3316L21.1508 32H15.0132L12.7732 10.8544H12.6836L10.4436 32H3.9028L0.722003 0.639998ZM30.0198 0.639998H36.695L41.8022 32H36.8742L35.9782 25.7728V25.8624H30.3782L29.4822 32H24.9126L30.0198 0.639998ZM35.3958 21.6064L33.2006 6.1056H33.111L30.9606 21.6064H35.3958ZM44.1931 0.639998H49.1211V32H44.1931V0.639998ZM56.6646 5.12H51.5126V0.639998H66.7446V5.12H61.5926V32H56.6646V5.12ZM67.4621 32H65.8493V27.2512H70.5981V31.5072L68.1341 37.376H65.8493L67.4621 32ZM88.5912 32.448C86.172 32.448 84.3203 31.7611 83.036 30.3872C81.7518 29.0133 81.1096 27.072 81.1096 24.5632V8.0768C81.1096 5.568 81.7518 3.62667 83.036 2.2528C84.3203 0.878932 86.172 0.191999 88.5912 0.191999C91.0104 0.191999 92.8622 0.878932 94.1464 2.2528C95.4307 3.62667 96.0728 5.568 96.0728 8.0768V24.5632C96.0728 27.072 95.4307 29.0133 94.1464 30.3872C92.8622 31.7611 91.0104 32.448 88.5912 32.448ZM88.5912 27.968C90.2936 27.968 91.1448 26.9376 91.1448 24.8768V7.7632C91.1448 5.7024 90.2936 4.672 88.5912 4.672C86.8888 4.672 86.0376 5.7024 86.0376 7.7632V24.8768C86.0376 26.9376 86.8888 27.968 88.5912 27.968ZM99.4055 0.639998H105.588L110.382 19.4112H110.471V0.639998H114.862V32H109.799L103.886 9.1072H103.796V32H99.4055V0.639998ZM118.524 0.639998H131.964V5.12H123.452V13.408H130.217V17.888H123.452V27.52H131.964V32H118.524V0.639998ZM141.974 0.639998H146.902V27.52H155.011V32H141.974V0.639998ZM161.357 0.639998H168.032L173.14 32H168.212L167.316 25.7728V25.8624H161.716L160.82 32H156.25L161.357 0.639998ZM166.733 21.6064L164.538 6.1056H164.448L162.298 21.6064H166.733ZM181.806 32.448C179.416 32.448 177.609 31.776 176.385 30.432C175.16 29.0581 174.548 27.1019 174.548 24.5632V22.7712H179.207V24.9216C179.207 26.9525 180.059 27.968 181.761 27.968C182.597 27.968 183.224 27.7291 183.643 27.2512C184.091 26.7435 184.315 25.9371 184.315 24.832C184.315 23.5179 184.016 22.368 183.419 21.3824C182.821 20.3669 181.716 19.1573 180.103 17.7536C178.072 15.9616 176.654 14.3488 175.847 12.9152C175.041 11.4517 174.638 9.80907 174.638 7.9872C174.638 5.50827 175.265 3.5968 176.519 2.2528C177.774 0.878932 179.596 0.191999 181.985 0.191999C184.344 0.191999 186.121 0.878932 187.316 2.2528C188.541 3.5968 189.153 5.53813 189.153 8.0768V9.376H184.494V7.7632C184.494 6.688 184.285 5.91147 183.867 5.4336C183.448 4.92587 182.836 4.672 182.03 4.672C180.387 4.672 179.566 5.67253 179.566 7.6736C179.566 8.80853 179.864 9.8688 180.462 10.8544C181.089 11.84 182.209 13.0347 183.822 14.4384C185.883 16.2304 187.301 17.8581 188.078 19.3216C188.854 20.7851 189.243 22.5024 189.243 24.4736C189.243 27.0421 188.6 29.0133 187.316 30.3872C186.062 31.7611 184.225 32.448 181.806 32.448ZM195.921 5.12H190.769V0.639998H206.001V5.12H200.849V32H195.921V5.12ZM219.415 5.12H214.263V0.639998H229.495V5.12H224.343V32H219.415V5.12ZM231.881 0.639998H236.809V13.408H242.095V0.639998H247.023V32H242.095V17.888H236.809V32H231.881V0.639998ZM250.693 0.639998H255.621V32H250.693V0.639998ZM259.312 0.639998H265.494L270.288 19.4112H270.377V0.639998H274.768V32H269.705L263.792 9.1072H263.702V32H259.312V0.639998ZM285.419 32.448C283.03 32.448 281.208 31.776 279.954 30.432C278.699 29.0581 278.072 27.1019 278.072 24.5632V8.0768C278.072 5.53813 278.699 3.5968 279.954 2.2528C281.208 0.878932 283.03 0.191999 285.419 0.191999C287.809 0.191999 289.631 0.878932 290.885 2.2528C292.139 3.5968 292.767 5.53813 292.767 8.0768V10.7648H288.107V7.7632C288.107 5.7024 287.256 4.672 285.554 4.672C283.851 4.672 283 5.7024 283 7.7632V24.9216C283 26.9525 283.851 27.968 285.554 27.968C287.256 27.968 288.107 26.9525 288.107 24.9216V18.784H285.643V14.304H292.767V24.5632C292.767 27.1019 292.139 29.0581 290.885 30.432C289.631 31.776 287.809 32.448 285.419 32.448ZM303.106 27.2512H307.854V32H303.106V27.2512ZM318.724 27.2512H323.473V32H318.724V27.2512ZM334.343 27.2512H339.092V32H334.343V27.2512Z" fill="#00063D"/>
</svg>
